<svg version="1.2" xmlns="http://www.w3.org/2000/svg" viewBox="0 0 447 288" width="447" height="288"><style>tspan{white-space:pre}.a{fill:#1b262f}.b{fill:#2e3f4d}.c{fill:#ba4270}.d{fill:#527695}.e{fill:#36536b}.f{font-size: 13px;fill: #fbfcfe;font-weight: 400;font-family: "RobotoMono-Regular", "Roboto Mono"}</style><path fill-rule="evenodd" d="m10 2h429c4.4 0 8 3.6 8 8v268c0 4.4-3.6 8-8 8h-429c-4.4 0-8-3.6-8-8v-268c0-4.4 3.6-8 8-8z"/><path fill-rule="evenodd" class="a" d="m10 2h429c4.4 0 8 3.6 8 8v268c0 4.4-3.6 8-8 8h-429c-4.4 0-8-3.6-8-8v-268c0-4.4 3.6-8 8-8z"/><path fill-rule="evenodd" class="b" d="m10 2h429q1.6 0 3.1 0.6 1.4 0.6 2.6 1.7 1.1 1.2 1.7 2.6 0.6 1.5 0.6 3.1v32h-445v-32q0-1.6 0.6-3.1 0.6-1.4 1.7-2.6 1.2-1.1 2.6-1.7 1.5-0.6 3.1-0.6z"/><path fill-rule="evenodd" class="c" d="m26 30c-4.4 0-8-3.6-8-8 0-4.4 3.6-8 8-8 4.4 0 8 3.6 8 8 0 4.4-3.6 8-8 8z"/><path fill-rule="evenodd" class="d" d="m48.4 30c-4.4 0-8-3.6-8-8 0-4.4 3.6-8 8-8 4.4 0 8 3.6 8 8 0 4.4-3.6 8-8 8z"/><path fill-rule="evenodd" class="e" d="m70.8 30c-4.4 0-8-3.6-8-8 0-4.4 3.6-8 8-8 4.4 0 8 3.6 8 8 0 4.4-3.6 8-8 8z"/><text style="transform:matrix(1,0,0,1,34,88)" ><tspan x="0" y="0" class="f">&lt;form id=&quot;form-id&quot; method=&quot;GET&quot;&gt; &lt;/form&gt;
</tspan></text><text style="transform:matrix(1,0,0,1,34,108)" ><tspan x="0" y="0" class="f">&lt;script
</tspan></text><text style="transform:matrix(1,0,0,1,34,128)" ><tspan x="0" y="0" class="f"> src=&quot;https://loremipsum.com/api.js&quot;
</tspan></text><text style="transform:matrix(1,0,0,1,34,148)" ><tspan x="0" y="0" class="f"> data-client-name=&quot;Your Company's Name&quot;
</tspan></text><text style="transform:matrix(1,0,0,1,34,168)" ><tspan x="0" y="0" class="f"> data-form-id=&quot;form-id&quot;
</tspan></text><text style="transform:matrix(1,0,0,1,34,188)" ><tspan x="0" y="0" class="f"> data-key=&quot;test_key&quot;
</tspan></text><text style="transform:matrix(1,0,0,1,34,208)" ><tspan x="0" y="0" class="f"> data-product=&quot;transactions&quot;
</tspan></text><text style="transform:matrix(1,0,0,1,34,228)" ><tspan x="0" y="0" class="f"> data-env=&quot;sandbox&quot;&gt;
</tspan></text><text style="transform:matrix(1,0,0,1,34,248)" ><tspan x="0" y="0" class="f">&lt;/script&gt;
</tspan></text></svg>